<svg width="30" height="31" viewBox="0 0 30 31" fill="none" xmlns="http://www.w3.org/2000/svg">
<circle cx="15" cy="15.4458" r="15" fill="white"/>
<path fill-rule="evenodd" clip-rule="evenodd" d="M14.5201 16.4089L5.99414 22.1132H23.1289L14.6029 16.4089L14.5615 16.4364L14.5201 16.4089Z" fill="#F7F5ED"/>
<path fill-rule="evenodd" clip-rule="evenodd" d="M23.1287 22.2185L14.5523 16.6391L14.5989 16.6093L14.604 16.6124L14.6204 16.6021C15.4134 16.1016 16.2029 15.5933 16.9906 15.0795C16.9907 15.0794 16.9908 15.0794 16.9908 15.0793C19.0402 13.7425 21.0769 12.3684 23.1289 10.9991V22.2186L23.1287 22.2185L23.1287 22.2185Z" fill="#F7F5ED"/>
<path fill-rule="evenodd" clip-rule="evenodd" d="M5.99219 22.1131H5.39035C4.62494 22.1131 3.99872 21.552 3.99872 20.8661V9.50543C3.99872 8.81957 4.62495 8.25842 5.39035 8.25842H5.99219V22.1131V22.1131Z" fill="#E75A4D"/>
<path fill-rule="evenodd" clip-rule="evenodd" d="M23.1276 22.2207H23.7295C24.4949 22.2207 25.1211 21.6595 25.1211 20.9737V9.50745C25.1211 8.82158 24.4949 8.26044 23.7295 8.26044H23.1276V22.2207V22.2207Z" fill="#E75A4D"/>
<path fill-rule="evenodd" clip-rule="evenodd" d="M14.5182 13.9626L5.99219 8.25842H23.127L14.6009 13.9626L14.5596 13.9351L14.5182 13.9626Z" fill="#F7F5ED"/>
<path fill-rule="evenodd" clip-rule="evenodd" d="M14.5508 16.6391L5.99255 22.1132V10.9991C7.40838 11.9439 8.81695 12.891 10.2274 13.8265C11.5625 14.7121 12.8993 15.5873 14.2456 16.4406L14.246 16.4408L14.5508 16.6391L14.5508 16.6391Z" fill="#B7B6AD"/>
<path d="M14.4762 16.6463L23.0957 22.2585L23.1602 22.1788L14.5406 16.5665L14.4762 16.6463Z" fill="#B7B6AD"/>
<path fill-rule="evenodd" clip-rule="evenodd" d="M14.551 16.6392C17.8003 14.9048 21.9456 11.77 25.1211 9.67561L24.1816 8.35591L23.1551 8.28069L23.1276 8.25848L14.6016 13.9628L14.5602 13.9353L14.5188 13.9628L5.99281 8.25848L5.96535 8.28069L4.93887 8.35591L3.99933 9.67561C7.43386 11.9409 11.0188 14.5622 14.551 16.6392H14.551Z" fill="#E75A4D"/>
</svg>
