<svg width="58" height="20" viewBox="0 0 58 20" fill="none" xmlns="http://www.w3.org/2000/svg">
<path d="M23.9103 1.41211L20.0042 19.2945H24.7388L28.5265 1.41211H23.9103Z" fill="white"/>
<path d="M17.0449 1.41205L12.1918 13.5297L10.1796 3.17676C9.94283 2.00029 8.9959 1.41205 8.04897 1.41205H0.118338L0 1.88267C1.65714 2.23561 3.43268 2.82383 4.61636 3.41207C5.32656 3.76501 5.44488 4.11793 5.68162 4.94146L9.35105 19.1768H14.3224L21.898 1.29443H17.0449V1.41205Z" fill="white"/>
<path d="M53.8572 1.41211H49.8327C48.8857 1.41211 48.1756 1.88274 47.8205 2.70627L40.8368 19.2945H45.6898L46.6368 16.5886H52.5552L53.147 19.2945H57.4082L53.8572 1.41211ZM48.1756 12.9415L50.6613 6.23568L52.0817 12.9415H48.1756Z" fill="white"/>
<path d="M34.6816 6.3532C34.6816 5.76496 35.2735 5.0591 36.6939 4.8238C37.4041 4.70616 39.1796 4.70617 41.3103 5.64735L42.1388 1.88263C41.0735 1.52968 39.5348 1.05908 37.7592 1.05908C33.1429 1.05908 29.947 3.52967 29.947 6.94144C29.947 9.52967 32.3143 10.9414 33.9715 11.7649C35.747 12.5885 36.3388 13.1767 36.3388 14.0003C36.3388 15.1767 34.9184 15.765 33.498 15.765C31.1306 15.765 29.8286 15.1767 28.7633 14.5885L27.9347 18.4708C29 18.9414 31.0123 19.412 33.1429 19.412C37.9959 19.412 41.1918 17.0591 41.1918 13.2944C41.1918 8.82382 34.5633 8.47085 34.6816 6.3532Z" fill="white"/>
</svg>
